<svg width="230" height="230" viewBox="0 0 230 230" fill="none" xmlns="http://www.w3.org/2000/svg">
<circle cx="115" cy="115" r="113.5" fill="#2A292D" stroke="#F0EDF9" stroke-width="3"/>
<g filter="url(#filter0_d)">
<path d="M9.176 114.212L23.072 105.212V110L13.532 115.976V116.12L23.072 122.096V126.884L9.176 117.884V114.212ZM33.1859 89.36C33.1859 82.88 34.1459 77.12 36.0659 72.08C37.9859 66.96 40.6259 62.64 43.9859 59.12C47.3459 55.6 51.3059 52.92 55.8659 51.08C60.4259 49.24 65.3059 48.32 70.5059 48.32C75.5459 48.32 79.9859 49.36 83.8259 51.44C87.7459 53.44 91.0259 55.72 93.6659 58.28L83.9459 69.2C82.1059 67.52 80.1059 66.16 77.9459 65.12C75.7859 64.08 73.3059 63.56 70.5059 63.56C67.7059 63.56 65.1459 64.16 62.8259 65.36C60.5059 66.48 58.4659 68.12 56.7059 70.28C55.0259 72.44 53.7059 75.08 52.7459 78.2C51.7859 81.32 51.3059 84.84 51.3059 88.76C51.3059 96.84 53.1459 103.12 56.8259 107.6C60.5059 112 65.3059 114.2 71.2259 114.2C74.0259 114.2 76.5459 113.56 78.7859 112.28C81.1059 111 83.2259 109.32 85.1459 107.24L94.8659 117.92C88.3059 125.6 80.0659 129.44 70.1459 129.44C65.1059 129.44 60.3459 128.6 55.8659 126.92C51.3859 125.16 47.4659 122.6 44.1059 119.24C40.7459 115.88 38.0659 111.72 36.0659 106.76C34.1459 101.72 33.1859 95.92 33.1859 89.36Z" fill="#F0EDF9"/>
</g>
<g filter="url(#filter1_d)">
<path d="M99.48 94.76H117.48L120 136.4C120.08 139.76 120.16 143.08 120.24 146.36C120.32 149.64 120.4 152.96 120.48 156.32H120.84C121.48 152.96 122.16 149.64 122.88 146.36C123.68 143.08 124.4 139.76 125.04 136.4L130.44 114.68H141.12L146.28 136.4C146.92 139.6 147.6 142.88 148.32 146.24C149.04 149.6 149.72 152.96 150.36 156.32H150.84C151 152.96 151.08 149.64 151.08 146.36C151.16 143 151.28 139.68 151.44 136.4L153.72 94.76H170.52L160.8 173H142.32L137.4 148.4C136.92 145.92 136.48 143.4 136.08 140.84C135.68 138.2 135.4 135.72 135.24 133.4H134.88C134.64 135.72 134.32 138.2 133.92 140.84C133.6 143.4 133.2 145.92 132.72 148.4L128.04 173H109.92L99.48 94.76ZM178.045 178.76H173.617L185.461 147.44H189.889L178.045 178.76ZM209.963 162.884L196.067 171.884V167.096L205.607 161.12V160.976L196.067 155V150.212L209.963 159.212V162.884Z" fill="#F0EDF9"/>
</g>
<defs>
<filter id="filter0_d" x="4.17599" y="43.32" width="105.69" height="101.12" filterUnits="userSpaceOnUse" color-interpolation-filters="sRGB">
<feFlood flood-opacity="0" result="BackgroundImageFix"/>
<feColorMatrix in="SourceAlpha" type="matrix" values="0 0 0 0 0 0 0 0 0 0 0 0 0 0 0 0 0 0 127 0"/>
<feOffset dx="5" dy="5"/>
<feGaussianBlur stdDeviation="5"/>
<feColorMatrix type="matrix" values="0 0 0 0 0.941176 0 0 0 0 0.929412 0 0 0 0 0.976471 0 0 0 0.25 0"/>
<feBlend mode="normal" in2="BackgroundImageFix" result="effect1_dropShadow"/>
<feBlend mode="normal" in="SourceGraphic" in2="effect1_dropShadow" result="shape"/>
</filter>
<filter id="filter1_d" x="94.48" y="89.76" width="130.483" height="104" filterUnits="userSpaceOnUse" color-interpolation-filters="sRGB">
<feFlood flood-opacity="0" result="BackgroundImageFix"/>
<feColorMatrix in="SourceAlpha" type="matrix" values="0 0 0 0 0 0 0 0 0 0 0 0 0 0 0 0 0 0 127 0"/>
<feOffset dx="5" dy="5"/>
<feGaussianBlur stdDeviation="5"/>
<feColorMatrix type="matrix" values="0 0 0 0 0.941176 0 0 0 0 0.929412 0 0 0 0 0.976471 0 0 0 0.25 0"/>
<feBlend mode="normal" in2="BackgroundImageFix" result="effect1_dropShadow"/>
<feBlend mode="normal" in="SourceGraphic" in2="effect1_dropShadow" result="shape"/>
</filter>
</defs>
</svg>
